<svg width="307" height="158" viewBox="0 0 307 158" fill="none" xmlns="http://www.w3.org/2000/svg">
<path d="M69.6613 71C68.1912 71 67 72.1912 67 73.6613C67 75.1314 68.1912 76.3226 69.6613 76.3226C71.3244 76.3226 72.6774 77.6756 72.6774 79.3387C72.6774 80.8088 73.8686 82 75.3387 82C76.8088 82 78 80.8088 78 79.3387C78 74.7407 74.2593 71 69.6613 71Z" fill="#0FBAB7"/>
<path d="M122.072 79C124.279 76.658 126.314 74.3061 128.154 71.9589C138.357 58.9483 141.497 47.4208 136.997 39.5C132.498 31.5795 121.105 28.5789 104.915 31.0533C101.99 31.5004 98.9622 32.1163 95.8568 32.8906C94.0164 26.442 91.7817 20.6731 89.2018 15.8386C90.324 14.4531 90.9989 12.6799 90.9989 10.7495C90.9989 6.32751 87.459 2.73002 83.1079 2.73002C81.8147 2.73002 80.5945 3.04978 79.5162 3.6125C76.3682 1.21588 73.0647 0 69.6766 0C60.6767 0 52.4236 8.52756 46.4378 24.0122C45.3579 26.8054 44.3707 29.7723 43.4788 32.8862C40.3795 32.1143 37.3577 31.4997 34.4373 31.0533C18.2492 28.5799 6.8555 31.5792 2.35524 39.5C-2.14436 47.4208 0.995954 58.9483 11.1986 71.9589C13.0428 74.3105 15.0817 76.6672 17.2942 79.0137C14.5689 81.8989 12.118 84.7894 9.98306 87.6491C9.31618 87.4624 8.61538 87.3607 7.89108 87.3607C3.53991 87.3607 0 90.9582 0 95.3801C0 97.5805 0.877086 99.5765 2.29412 101.027C-0.298853 107.835 -0.283743 113.854 2.35557 118.5C5.82698 124.61 13.3984 127.792 24.1108 127.792C27.285 127.792 30.7373 127.512 34.4377 126.946C37.3577 126.5 40.3795 125.886 43.4792 125.113C44.371 128.227 45.3583 131.194 46.4382 133.987C52.4236 149.472 60.6767 158 69.6766 158C78.6764 158 86.9295 149.472 92.9153 133.987C93.9969 131.189 94.9858 128.218 95.8786 125.098C99.985 126.125 103.94 126.872 107.679 127.313C108.522 130.819 111.638 133.43 115.344 133.43C119.117 133.43 122.279 130.724 123.053 127.121C129.675 125.893 134.481 122.928 136.997 118.5C141.497 110.58 138.357 99.052 128.154 86.0414C126.314 83.6939 124.279 81.3417 122.072 79ZM105.664 36.1155C119.46 34.0058 129.291 36.1731 132.635 42.0594C135.979 47.9453 132.91 57.6806 124.215 68.7689C122.488 70.9707 120.581 73.1793 118.511 75.3803C113.345 70.3353 107.407 65.3779 100.889 60.6676C100.124 52.5761 98.8611 44.8723 97.1567 37.835C100.075 37.1116 102.918 36.5352 105.664 36.1155ZM83.1921 102.79C78.7016 105.425 74.1809 107.832 69.6873 109.995C65.1766 107.83 60.6448 105.421 56.161 102.79C51.6671 100.154 47.3519 97.3761 43.2589 94.5C42.8546 89.4601 42.6454 84.2734 42.6454 79C42.6454 73.7314 42.8543 68.5495 43.2579 63.514C47.3616 60.6232 51.6812 57.8379 56.161 55.2092C60.6549 52.5724 65.1793 50.1635 69.6766 47.9992C74.1738 50.1631 78.6983 52.5724 83.1921 55.2092C87.6833 57.8444 91.9959 60.6198 96.0862 63.4938C96.4941 68.5375 96.7077 73.729 96.7077 79C96.7077 84.2734 96.4985 89.4601 96.0942 94.5C92.0013 97.3761 87.686 100.154 83.1921 102.79ZM95.4404 101.123C94.7051 107.356 93.6574 113.302 92.3179 118.835C86.9449 117.247 81.3466 115.195 75.6637 112.728C79.0169 111.019 82.3731 109.181 85.7102 107.224C89.053 105.262 92.3021 103.223 95.4404 101.123ZM63.7159 112.732C58.029 115.205 52.4297 117.259 47.0379 118.848C45.6971 113.312 44.6481 107.361 43.9124 101.123C47.0507 103.223 50.2998 105.262 53.6426 107.223C56.98 109.181 60.347 111.019 63.7159 112.732ZM37.9417 90.6132C33.0002 86.8512 28.4586 82.9575 24.4147 79.014C28.4539 75.0794 33.0022 71.1785 37.9403 67.4117C37.7207 71.2157 37.6086 75.0862 37.6086 79C37.6086 82.9224 37.721 86.8014 37.9417 90.6132ZM43.9107 56.8896C44.6467 50.6474 45.6961 44.6918 47.0379 39.1516C52.4263 40.7398 58.0223 42.7921 63.7055 45.2631C60.347 46.9748 56.9847 48.8152 53.6422 50.7764C50.3068 52.7334 47.057 54.7786 43.9107 56.8896ZM75.6473 45.2631C81.3275 42.7934 86.9204 40.7418 92.3062 39.1543C93.6362 44.6659 94.6869 50.6184 95.427 56.8677C92.2931 54.7707 89.0483 52.7351 85.7106 50.7767C82.3678 48.8152 79.0058 46.9748 75.6473 45.2631ZM101.403 67.3803C106.354 71.1485 110.903 75.0493 114.953 79C110.905 82.9483 106.359 86.8471 101.411 90.6135C101.632 86.8017 101.745 82.9227 101.745 79.0003C101.745 75.0794 101.628 71.1973 101.403 67.3803ZM85.9624 10.7495C85.9624 12.3489 84.682 13.6501 83.1082 13.6501C81.5343 13.6501 80.254 12.3489 80.254 10.7495C80.254 9.15001 81.5343 7.84881 83.1082 7.84881C84.682 7.84881 85.9624 9.15001 85.9624 10.7495ZM51.1255 25.8844C56.2271 12.6874 62.9886 5.11879 69.6766 5.11879C71.7716 5.11879 73.8837 5.86033 75.9743 7.32567C75.4894 8.36479 75.2171 9.52505 75.2171 10.7495C75.2171 15.1714 78.757 18.7689 83.1082 18.7689C83.7311 18.7689 84.3365 18.6928 84.9184 18.5536C87.2653 23.0035 89.3099 28.2929 91.007 34.2109C84.1307 36.2332 76.9434 38.9786 69.6769 42.3559C62.409 38.9779 55.2211 36.2325 48.3441 34.2102C49.1843 31.2878 50.1127 28.5048 51.1255 25.8844ZM6.71716 42.0594C10.061 36.1731 19.8919 34.0069 33.6882 36.1155C36.4279 36.5342 39.2637 37.1088 42.1743 37.8296C40.4581 44.8986 39.2029 52.6038 38.4477 60.6959C31.9522 65.4031 26.0134 70.3687 20.8573 75.3974C18.7814 73.1905 16.8684 70.9765 15.1374 68.7689C6.44248 57.6806 3.37335 47.9453 6.71716 42.0594ZM7.89108 92.4795C9.46493 92.4795 10.7453 93.7807 10.7453 95.3801C10.7453 96.9796 9.46493 98.2808 7.89108 98.2808C6.31723 98.2808 5.03686 96.9796 5.03686 95.3801C5.03686 93.7807 6.31723 92.4795 7.89108 92.4795ZM33.6885 121.885C19.8932 123.992 10.0616 121.827 6.71749 115.941C4.52679 112.084 5.41664 107.198 6.8236 103.324C7.17316 103.372 7.5291 103.4 7.89108 103.4C12.2423 103.4 15.7822 99.8021 15.7822 95.3801C15.7822 93.5548 15.1777 91.871 14.1633 90.5217C16.126 87.9108 18.3677 85.2709 20.8543 82.6316C26.0134 87.6688 31.9424 92.6184 38.4497 97.3219C39.2049 105.407 40.4594 113.106 42.1746 120.17C39.264 120.891 36.4279 121.466 33.6885 121.885ZM88.227 132.116C83.1253 145.312 76.3642 152.881 69.6766 152.881C62.9886 152.881 56.2271 145.312 51.1258 132.116C50.1127 129.495 49.1846 126.712 48.3438 123.79C55.2251 121.766 62.4184 119.018 69.691 115.637C76.9545 119.005 84.1528 121.749 91.0147 123.772C90.1722 126.701 89.2421 129.49 88.227 132.116ZM115.344 128.311C113.77 128.311 112.49 127.01 112.49 125.41C112.49 123.811 113.77 122.51 115.344 122.51C116.918 122.51 118.198 123.811 118.198 125.41C118.198 127.01 116.918 128.311 115.344 128.311ZM132.635 115.941C130.896 119.002 127.484 121.041 122.492 122.018C121.232 119.288 118.503 117.391 115.344 117.391C112.112 117.391 109.328 119.377 108.11 122.211C104.647 121.797 100.985 121.105 97.1812 120.159C98.8951 113.098 100.149 105.403 100.903 97.3222C107.416 92.615 113.349 87.661 118.511 82.62C120.581 84.8211 122.489 87.0297 124.215 89.2314C132.91 100.319 135.979 110.055 132.635 115.941Z" fill="#0FBAB7"/>
<path d="M159.766 82.1484H164.078C163.969 84.4922 163.492 86.5156 162.648 88.2188C161.82 89.9062 160.609 91.2031 159.016 92.1094C157.438 93.0156 155.461 93.4688 153.086 93.4688C151.383 93.4688 149.844 93.1328 148.469 92.4609C147.094 91.7891 145.914 90.8281 144.93 89.5781C143.961 88.3125 143.219 86.7969 142.703 85.0312C142.188 83.2656 141.93 81.2812 141.93 79.0781V72.7734C141.93 70.5859 142.188 68.6094 142.703 66.8438C143.234 65.0781 143.992 63.5703 144.977 62.3203C145.977 61.0547 147.188 60.0859 148.609 59.4141C150.047 58.7422 151.672 58.4062 153.484 58.4062C155.703 58.4062 157.578 58.8516 159.109 59.7422C160.656 60.6172 161.844 61.9062 162.672 63.6094C163.516 65.2969 163.984 67.3672 164.078 69.8203H159.766C159.656 68.0234 159.375 66.5625 158.922 65.4375C158.469 64.2969 157.797 63.4609 156.906 62.9297C156.031 62.3828 154.891 62.1094 153.484 62.1094C152.234 62.1094 151.148 62.3594 150.227 62.8594C149.32 63.3594 148.57 64.0781 147.977 65.0156C147.398 65.9375 146.961 67.0547 146.664 68.3672C146.383 69.6641 146.242 71.1172 146.242 72.7266V79.0781C146.242 80.5781 146.359 81.9766 146.594 83.2734C146.844 84.5703 147.234 85.7109 147.766 86.6953C148.312 87.6641 149.023 88.4219 149.898 88.9688C150.773 89.5156 151.836 89.7891 153.086 89.7891C154.664 89.7891 155.914 89.5312 156.836 89.0156C157.758 88.5 158.438 87.6797 158.875 86.5547C159.328 85.4297 159.625 83.9609 159.766 82.1484ZM187 82.1484H191.312C191.203 84.4922 190.727 86.5156 189.883 88.2188C189.055 89.9062 187.844 91.2031 186.25 92.1094C184.672 93.0156 182.695 93.4688 180.32 93.4688C178.617 93.4688 177.078 93.1328 175.703 92.4609C174.328 91.7891 173.148 90.8281 172.164 89.5781C171.195 88.3125 170.453 86.7969 169.938 85.0312C169.422 83.2656 169.164 81.2812 169.164 79.0781V72.7734C169.164 70.5859 169.422 68.6094 169.938 66.8438C170.469 65.0781 171.227 63.5703 172.211 62.3203C173.211 61.0547 174.422 60.0859 175.844 59.4141C177.281 58.7422 178.906 58.4062 180.719 58.4062C182.938 58.4062 184.812 58.8516 186.344 59.7422C187.891 60.6172 189.078 61.9062 189.906 63.6094C190.75 65.2969 191.219 67.3672 191.312 69.8203H187C186.891 68.0234 186.609 66.5625 186.156 65.4375C185.703 64.2969 185.031 63.4609 184.141 62.9297C183.266 62.3828 182.125 62.1094 180.719 62.1094C179.469 62.1094 178.383 62.3594 177.461 62.8594C176.555 63.3594 175.805 64.0781 175.211 65.0156C174.633 65.9375 174.195 67.0547 173.898 68.3672C173.617 69.6641 173.477 71.1172 173.477 72.7266V79.0781C173.477 80.5781 173.594 81.9766 173.828 83.2734C174.078 84.5703 174.469 85.7109 175 86.6953C175.547 87.6641 176.258 88.4219 177.133 88.9688C178.008 89.5156 179.07 89.7891 180.32 89.7891C181.898 89.7891 183.148 89.5312 184.07 89.0156C184.992 88.5 185.672 87.6797 186.109 86.5547C186.562 85.4297 186.859 83.9609 187 82.1484ZM215.664 73.5469V77.2266H200.875V73.5469H215.664ZM201.461 58.875V93H197.148V58.875H201.461ZM219.484 58.875V93H215.172V58.875H219.484ZM238.773 88.6641V74.9062C238.773 73.9062 238.617 73.1016 238.305 72.4922C238.008 71.8828 237.555 71.4375 236.945 71.1562C236.352 70.875 235.602 70.7344 234.695 70.7344C233.82 70.7344 233.062 70.9141 232.422 71.2734C231.797 71.6328 231.312 72.1094 230.969 72.7031C230.641 73.2969 230.477 73.9531 230.477 74.6719H226.328C226.328 73.7656 226.523 72.8672 226.914 71.9766C227.32 71.0859 227.898 70.2812 228.648 69.5625C229.398 68.8281 230.297 68.25 231.344 67.8281C232.406 67.3906 233.594 67.1719 234.906 67.1719C236.469 67.1719 237.852 67.4297 239.055 67.9453C240.258 68.4453 241.203 69.2656 241.891 70.4062C242.578 71.5469 242.922 73.0625 242.922 74.9531V87.4688C242.922 88.3125 242.984 89.2109 243.109 90.1641C243.25 91.1172 243.445 91.9375 243.695 92.625V93H239.406C239.203 92.5 239.047 91.8359 238.938 91.0078C238.828 90.1641 238.773 89.3828 238.773 88.6641ZM239.43 77.625L239.477 80.6719H236.594C235.609 80.6719 234.711 80.7812 233.898 81C233.102 81.2188 232.414 81.5391 231.836 81.9609C231.258 82.3672 230.812 82.875 230.5 83.4844C230.203 84.0938 230.055 84.7891 230.055 85.5703C230.055 86.5859 230.195 87.3984 230.477 88.0078C230.758 88.6016 231.18 89.0312 231.742 89.2969C232.305 89.5625 233.016 89.6953 233.875 89.6953C234.922 89.6953 235.844 89.4531 236.641 88.9688C237.438 88.4844 238.055 87.8984 238.492 87.2109C238.945 86.5234 239.156 85.8828 239.125 85.2891L240.039 87.2344C239.977 87.8438 239.773 88.5078 239.43 89.2266C239.102 89.9297 238.641 90.6094 238.047 91.2656C237.453 91.9062 236.75 92.4375 235.938 92.8594C235.141 93.2656 234.242 93.4688 233.242 93.4688C231.773 93.4688 230.484 93.1875 229.375 92.625C228.281 92.0625 227.43 91.2344 226.82 90.1406C226.211 89.0469 225.906 87.6953 225.906 86.0859C225.906 84.8672 226.117 83.7422 226.539 82.7109C226.961 81.6797 227.586 80.7891 228.414 80.0391C229.242 79.2734 230.281 78.6797 231.531 78.2578C232.797 77.8359 234.258 77.625 235.914 77.625H239.43ZM253.516 71.625V93H249.367V67.6406H253.375L253.516 71.625ZM259.82 67.5L259.844 71.5312C259.5 71.4531 259.188 71.4062 258.906 71.3906C258.641 71.3594 258.328 71.3438 257.969 71.3438C257.188 71.3438 256.5 71.5 255.906 71.8125C255.328 72.125 254.828 72.5625 254.406 73.125C253.984 73.6875 253.648 74.3594 253.398 75.1406C253.148 75.9062 252.977 76.75 252.883 77.6719L251.805 78.375C251.805 76.8438 251.922 75.4062 252.156 74.0625C252.406 72.7188 252.789 71.5312 253.305 70.5C253.82 69.4531 254.477 68.6406 255.273 68.0625C256.086 67.4688 257.055 67.1719 258.18 67.1719C258.43 67.1719 258.734 67.2109 259.094 67.2891C259.469 67.3516 259.711 67.4219 259.82 67.5ZM268.141 71.625V93H263.992V67.6406H268L268.141 71.625ZM274.445 67.5L274.469 71.5312C274.125 71.4531 273.812 71.4062 273.531 71.3906C273.266 71.3594 272.953 71.3438 272.594 71.3438C271.812 71.3438 271.125 71.5 270.531 71.8125C269.953 72.125 269.453 72.5625 269.031 73.125C268.609 73.6875 268.273 74.3594 268.023 75.1406C267.773 75.9062 267.602 76.75 267.508 77.6719L266.43 78.375C266.43 76.8438 266.547 75.4062 266.781 74.0625C267.031 72.7188 267.414 71.5312 267.93 70.5C268.445 69.4531 269.102 68.6406 269.898 68.0625C270.711 67.4688 271.68 67.1719 272.805 67.1719C273.055 67.1719 273.359 67.2109 273.719 67.2891C274.094 67.3516 274.336 67.4219 274.445 67.5ZM283.07 67.6406V93H278.945V67.6406H283.07ZM278.711 60.9141C278.711 60.2109 278.906 59.6172 279.297 59.1328C279.688 58.6484 280.273 58.4062 281.055 58.4062C281.836 58.4062 282.422 58.6484 282.812 59.1328C283.219 59.6172 283.422 60.2109 283.422 60.9141C283.422 61.5859 283.219 62.1641 282.812 62.6484C282.422 63.1172 281.836 63.3516 281.055 63.3516C280.273 63.3516 279.688 63.1172 279.297 62.6484C278.906 62.1641 278.711 61.5859 278.711 60.9141ZM301.938 86.5078C301.938 85.8672 301.781 85.3047 301.469 84.8203C301.156 84.3359 300.641 83.8672 299.922 83.4141C299.219 82.9609 298.266 82.4766 297.062 81.9609C295.891 81.4766 294.836 81 293.898 80.5312C292.977 80.0469 292.195 79.5234 291.555 78.9609C290.914 78.3984 290.422 77.75 290.078 77.0156C289.75 76.2656 289.586 75.3828 289.586 74.3672C289.586 73.3516 289.773 72.4141 290.148 71.5547C290.539 70.6797 291.086 69.9141 291.789 69.2578C292.492 68.6016 293.336 68.0938 294.32 67.7344C295.305 67.3594 296.406 67.1719 297.625 67.1719C299.359 67.1719 300.836 67.5078 302.055 68.1797C303.273 68.8516 304.203 69.7734 304.844 70.9453C305.5 72.1016 305.828 73.4062 305.828 74.8594H301.703C301.703 74.1562 301.547 73.4922 301.234 72.8672C300.922 72.2422 300.461 71.7344 299.852 71.3438C299.242 70.9375 298.5 70.7344 297.625 70.7344C296.703 70.7344 295.953 70.8984 295.375 71.2266C294.797 71.5547 294.375 71.9844 294.109 72.5156C293.859 73.0312 293.734 73.6016 293.734 74.2266C293.734 74.6953 293.797 75.1016 293.922 75.4453C294.062 75.7734 294.297 76.0859 294.625 76.3828C294.953 76.6641 295.398 76.9609 295.961 77.2734C296.539 77.5703 297.273 77.9141 298.164 78.3047C299.883 78.9766 301.328 79.6562 302.5 80.3438C303.672 81.0312 304.562 81.8359 305.172 82.7578C305.781 83.6797 306.086 84.8203 306.086 86.1797C306.086 87.2891 305.883 88.2969 305.477 89.2031C305.086 90.0938 304.523 90.8594 303.789 91.5C303.055 92.1406 302.172 92.6328 301.141 92.9766C300.125 93.3047 298.984 93.4688 297.719 93.4688C295.812 93.4688 294.195 93.0938 292.867 92.3438C291.555 91.5781 290.555 90.5859 289.867 89.3672C289.195 88.1328 288.859 86.8125 288.859 85.4062H293.008C293.055 86.5938 293.32 87.5156 293.805 88.1719C294.305 88.8281 294.906 89.2812 295.609 89.5312C296.312 89.7812 297.016 89.9062 297.719 89.9062C298.641 89.9062 299.414 89.7734 300.039 89.5078C300.664 89.2266 301.133 88.8281 301.445 88.3125C301.773 87.7969 301.938 87.1953 301.938 86.5078Z" fill="#0FBAB7"/>
</svg>
