<svg width="170" height="214" viewBox="0 0 170 214" fill="none" xmlns="http://www.w3.org/2000/svg">
<path d="M85.6613 71C84.1912 71 83 72.1912 83 73.6613C83 75.1314 84.1912 76.3226 85.6613 76.3226C87.3244 76.3226 88.6774 77.6756 88.6774 79.3387C88.6774 80.8088 89.8686 82 91.3387 82C92.8088 82 94 80.8088 94 79.3387C94 74.7407 90.2593 71 85.6613 71Z" fill="#0FBAB7"/>
<path d="M138.072 79C140.279 76.658 142.314 74.3061 144.154 71.9589C154.357 58.9483 157.497 47.4208 152.997 39.5C148.498 31.5795 137.105 28.5789 120.915 31.0533C117.99 31.5004 114.962 32.1163 111.857 32.8906C110.016 26.442 107.782 20.6731 105.202 15.8386C106.324 14.4531 106.999 12.6799 106.999 10.7495C106.999 6.32751 103.459 2.73002 99.1079 2.73002C97.8147 2.73002 96.5945 3.04978 95.5162 3.6125C92.3682 1.21588 89.0647 0 85.6766 0C76.6767 0 68.4236 8.52756 62.4378 24.0122C61.3579 26.8054 60.3707 29.7723 59.4788 32.8862C56.3795 32.1143 53.3577 31.4997 50.4373 31.0533C34.2492 28.5799 22.8555 31.5792 18.3552 39.5C13.8556 47.4208 16.996 58.9483 27.1986 71.9589C29.0428 74.3105 31.0817 76.6672 33.2942 79.0137C30.5689 81.8989 28.118 84.7894 25.9831 87.6491C25.3162 87.4624 24.6154 87.3607 23.8911 87.3607C19.5399 87.3607 16 90.9582 16 95.3801C16 97.5805 16.8771 99.5765 18.2941 101.027C15.7011 107.835 15.7163 113.854 18.3556 118.5C21.827 124.61 29.3984 127.792 40.1108 127.792C43.285 127.792 46.7373 127.512 50.4377 126.946C53.3577 126.5 56.3795 125.886 59.4792 125.113C60.371 128.227 61.3583 131.194 62.4382 133.987C68.4236 149.472 76.6767 158 85.6766 158C94.6764 158 102.929 149.472 108.915 133.987C109.997 131.189 110.986 128.218 111.879 125.098C115.985 126.125 119.94 126.872 123.679 127.313C124.522 130.819 127.638 133.43 131.344 133.43C135.117 133.43 138.279 130.724 139.053 127.121C145.675 125.893 150.481 122.928 152.997 118.5C157.497 110.58 154.357 99.052 144.154 86.0414C142.314 83.6939 140.279 81.3417 138.072 79ZM121.664 36.1155C135.46 34.0058 145.291 36.1731 148.635 42.0594C151.979 47.9453 148.91 57.6806 140.215 68.7689C138.488 70.9707 136.581 73.1793 134.511 75.3803C129.345 70.3353 123.407 65.3779 116.889 60.6676C116.124 52.5761 114.861 44.8723 113.157 37.835C116.075 37.1116 118.918 36.5352 121.664 36.1155ZM99.1921 102.79C94.7016 105.425 90.1809 107.832 85.6873 109.995C81.1766 107.83 76.6448 105.421 72.161 102.79C67.6671 100.154 63.3519 97.3761 59.2589 94.5C58.8546 89.4601 58.6454 84.2734 58.6454 79C58.6454 73.7314 58.8543 68.5495 59.2579 63.514C63.3616 60.6232 67.6812 57.8379 72.161 55.2092C76.6549 52.5724 81.1793 50.1635 85.6766 47.9992C90.1738 50.1631 94.6983 52.5724 99.1921 55.2092C103.683 57.8444 107.996 60.6198 112.086 63.4938C112.494 68.5375 112.708 73.729 112.708 79C112.708 84.2734 112.499 89.4601 112.094 94.5C108.001 97.3761 103.686 100.154 99.1921 102.79ZM111.44 101.123C110.705 107.356 109.657 113.302 108.318 118.835C102.945 117.247 97.3466 115.195 91.6637 112.728C95.0169 111.019 98.3731 109.181 101.71 107.224C105.053 105.262 108.302 103.223 111.44 101.123ZM79.7159 112.732C74.029 115.205 68.4297 117.259 63.0379 118.848C61.6971 113.312 60.6481 107.361 59.9124 101.123C63.0507 103.223 66.2998 105.262 69.6426 107.223C72.98 109.181 76.347 111.019 79.7159 112.732ZM53.9417 90.6132C49.0002 86.8512 44.4586 82.9575 40.4147 79.014C44.4539 75.0794 49.0022 71.1785 53.9403 67.4117C53.7207 71.2157 53.6086 75.0862 53.6086 79C53.6086 82.9224 53.721 86.8014 53.9417 90.6132ZM59.9107 56.8896C60.6467 50.6474 61.6961 44.6918 63.0379 39.1516C68.4263 40.7398 74.0223 42.7921 79.7055 45.2631C76.347 46.9748 72.9847 48.8152 69.6422 50.7764C66.3068 52.7334 63.057 54.7786 59.9107 56.8896ZM91.6473 45.2631C97.3275 42.7934 102.92 40.7418 108.306 39.1543C109.636 44.6659 110.687 50.6184 111.427 56.8677C108.293 54.7707 105.048 52.7351 101.711 50.7767C98.3678 48.8152 95.0058 46.9748 91.6473 45.2631ZM117.403 67.3803C122.354 71.1485 126.903 75.0493 130.953 79C126.905 82.9483 122.359 86.8471 117.411 90.6135C117.632 86.8017 117.745 82.9227 117.745 79.0003C117.745 75.0794 117.628 71.1973 117.403 67.3803ZM101.962 10.7495C101.962 12.3489 100.682 13.6501 99.1082 13.6501C97.5343 13.6501 96.254 12.3489 96.254 10.7495C96.254 9.15001 97.5343 7.84881 99.1082 7.84881C100.682 7.84881 101.962 9.15001 101.962 10.7495ZM67.1255 25.8844C72.2271 12.6874 78.9886 5.11879 85.6766 5.11879C87.7716 5.11879 89.8837 5.86033 91.9743 7.32567C91.4894 8.36479 91.2171 9.52505 91.2171 10.7495C91.2171 15.1714 94.757 18.7689 99.1082 18.7689C99.7311 18.7689 100.337 18.6928 100.918 18.5536C103.265 23.0035 105.31 28.2929 107.007 34.2109C100.131 36.2332 92.9434 38.9786 85.6769 42.3559C78.409 38.9779 71.2211 36.2325 64.3441 34.2102C65.1843 31.2878 66.1127 28.5048 67.1255 25.8844ZM22.7172 42.0594C26.061 36.1731 35.8919 34.0069 49.6882 36.1155C52.4279 36.5342 55.2637 37.1088 58.1743 37.8296C56.4581 44.8986 55.2029 52.6038 54.4477 60.6959C47.9522 65.4031 42.0134 70.3687 36.8573 75.3974C34.7814 73.1905 32.8684 70.9765 31.1374 68.7689C22.4425 57.6806 19.3734 47.9453 22.7172 42.0594ZM23.8911 92.4795C25.4649 92.4795 26.7453 93.7807 26.7453 95.3801C26.7453 96.9796 25.4649 98.2808 23.8911 98.2808C22.3172 98.2808 21.0369 96.9796 21.0369 95.3801C21.0369 93.7807 22.3172 92.4795 23.8911 92.4795ZM49.6885 121.885C35.8932 123.992 26.0616 121.827 22.7175 115.941C20.5268 112.084 21.4166 107.198 22.8236 103.324C23.1732 103.372 23.5291 103.4 23.8911 103.4C28.2423 103.4 31.7822 99.8021 31.7822 95.3801C31.7822 93.5548 31.1777 91.871 30.1633 90.5217C32.126 87.9108 34.3677 85.2709 36.8543 82.6316C42.0134 87.6688 47.9424 92.6184 54.4497 97.3219C55.2049 105.407 56.4594 113.106 58.1746 120.17C55.264 120.891 52.4279 121.466 49.6885 121.885ZM104.227 132.116C99.1253 145.312 92.3642 152.881 85.6766 152.881C78.9886 152.881 72.2271 145.312 67.1258 132.116C66.1127 129.495 65.1846 126.712 64.3438 123.79C71.2251 121.766 78.4184 119.018 85.691 115.637C92.9545 119.005 100.153 121.749 107.015 123.772C106.172 126.701 105.242 129.49 104.227 132.116ZM131.344 128.311C129.77 128.311 128.49 127.01 128.49 125.41C128.49 123.811 129.77 122.51 131.344 122.51C132.918 122.51 134.198 123.811 134.198 125.41C134.198 127.01 132.918 128.311 131.344 128.311ZM148.635 115.941C146.896 119.002 143.484 121.041 138.492 122.018C137.232 119.288 134.503 117.391 131.344 117.391C128.112 117.391 125.328 119.377 124.11 122.211C120.647 121.797 116.985 121.105 113.181 120.159C114.895 113.098 116.149 105.403 116.903 97.3222C123.416 92.615 129.349 87.661 134.511 82.62C136.581 84.8211 138.489 87.0297 140.215 89.2314C148.91 100.319 151.979 110.055 148.635 115.941Z" fill="#0FBAB7"/>
<path d="M20.7656 191.148H25.0781C24.9688 193.492 24.4922 195.516 23.6484 197.219C22.8203 198.906 21.6094 200.203 20.0156 201.109C18.4375 202.016 16.4609 202.469 14.0859 202.469C12.3828 202.469 10.8438 202.133 9.46875 201.461C8.09375 200.789 6.91406 199.828 5.92969 198.578C4.96094 197.312 4.21875 195.797 3.70312 194.031C3.1875 192.266 2.92969 190.281 2.92969 188.078V181.773C2.92969 179.586 3.1875 177.609 3.70312 175.844C4.23438 174.078 4.99219 172.57 5.97656 171.32C6.97656 170.055 8.1875 169.086 9.60938 168.414C11.0469 167.742 12.6719 167.406 14.4844 167.406C16.7031 167.406 18.5781 167.852 20.1094 168.742C21.6562 169.617 22.8438 170.906 23.6719 172.609C24.5156 174.297 24.9844 176.367 25.0781 178.82H20.7656C20.6562 177.023 20.375 175.562 19.9219 174.438C19.4688 173.297 18.7969 172.461 17.9062 171.93C17.0312 171.383 15.8906 171.109 14.4844 171.109C13.2344 171.109 12.1484 171.359 11.2266 171.859C10.3203 172.359 9.57031 173.078 8.97656 174.016C8.39844 174.938 7.96094 176.055 7.66406 177.367C7.38281 178.664 7.24219 180.117 7.24219 181.727V188.078C7.24219 189.578 7.35938 190.977 7.59375 192.273C7.84375 193.57 8.23438 194.711 8.76562 195.695C9.3125 196.664 10.0234 197.422 10.8984 197.969C11.7734 198.516 12.8359 198.789 14.0859 198.789C15.6641 198.789 16.9141 198.531 17.8359 198.016C18.7578 197.5 19.4375 196.68 19.875 195.555C20.3281 194.43 20.625 192.961 20.7656 191.148ZM48 191.148H52.3125C52.2031 193.492 51.7266 195.516 50.8828 197.219C50.0547 198.906 48.8438 200.203 47.25 201.109C45.6719 202.016 43.6953 202.469 41.3203 202.469C39.6172 202.469 38.0781 202.133 36.7031 201.461C35.3281 200.789 34.1484 199.828 33.1641 198.578C32.1953 197.312 31.4531 195.797 30.9375 194.031C30.4219 192.266 30.1641 190.281 30.1641 188.078V181.773C30.1641 179.586 30.4219 177.609 30.9375 175.844C31.4688 174.078 32.2266 172.57 33.2109 171.32C34.2109 170.055 35.4219 169.086 36.8438 168.414C38.2812 167.742 39.9062 167.406 41.7188 167.406C43.9375 167.406 45.8125 167.852 47.3438 168.742C48.8906 169.617 50.0781 170.906 50.9062 172.609C51.75 174.297 52.2188 176.367 52.3125 178.82H48C47.8906 177.023 47.6094 175.562 47.1562 174.438C46.7031 173.297 46.0312 172.461 45.1406 171.93C44.2656 171.383 43.125 171.109 41.7188 171.109C40.4688 171.109 39.3828 171.359 38.4609 171.859C37.5547 172.359 36.8047 173.078 36.2109 174.016C35.6328 174.938 35.1953 176.055 34.8984 177.367C34.6172 178.664 34.4766 180.117 34.4766 181.727V188.078C34.4766 189.578 34.5938 190.977 34.8281 192.273C35.0781 193.57 35.4688 194.711 36 195.695C36.5469 196.664 37.2578 197.422 38.1328 197.969C39.0078 198.516 40.0703 198.789 41.3203 198.789C42.8984 198.789 44.1484 198.531 45.0703 198.016C45.9922 197.5 46.6719 196.68 47.1094 195.555C47.5625 194.43 47.8594 192.961 48 191.148ZM76.6641 182.547V186.227H61.875V182.547H76.6641ZM62.4609 167.875V202H58.1484V167.875H62.4609ZM80.4844 167.875V202H76.1719V167.875H80.4844ZM99.7734 197.664V183.906C99.7734 182.906 99.6172 182.102 99.3047 181.492C99.0078 180.883 98.5547 180.438 97.9453 180.156C97.3516 179.875 96.6016 179.734 95.6953 179.734C94.8203 179.734 94.0625 179.914 93.4219 180.273C92.7969 180.633 92.3125 181.109 91.9688 181.703C91.6406 182.297 91.4766 182.953 91.4766 183.672H87.3281C87.3281 182.766 87.5234 181.867 87.9141 180.977C88.3203 180.086 88.8984 179.281 89.6484 178.562C90.3984 177.828 91.2969 177.25 92.3438 176.828C93.4062 176.391 94.5938 176.172 95.9062 176.172C97.4688 176.172 98.8516 176.43 100.055 176.945C101.258 177.445 102.203 178.266 102.891 179.406C103.578 180.547 103.922 182.062 103.922 183.953V196.469C103.922 197.312 103.984 198.211 104.109 199.164C104.25 200.117 104.445 200.938 104.695 201.625V202H100.406C100.203 201.5 100.047 200.836 99.9375 200.008C99.8281 199.164 99.7734 198.383 99.7734 197.664ZM100.43 186.625L100.477 189.672H97.5938C96.6094 189.672 95.7109 189.781 94.8984 190C94.1016 190.219 93.4141 190.539 92.8359 190.961C92.2578 191.367 91.8125 191.875 91.5 192.484C91.2031 193.094 91.0547 193.789 91.0547 194.57C91.0547 195.586 91.1953 196.398 91.4766 197.008C91.7578 197.602 92.1797 198.031 92.7422 198.297C93.3047 198.562 94.0156 198.695 94.875 198.695C95.9219 198.695 96.8438 198.453 97.6406 197.969C98.4375 197.484 99.0547 196.898 99.4922 196.211C99.9453 195.523 100.156 194.883 100.125 194.289L101.039 196.234C100.977 196.844 100.773 197.508 100.43 198.227C100.102 198.93 99.6406 199.609 99.0469 200.266C98.4531 200.906 97.75 201.438 96.9375 201.859C96.1406 202.266 95.2422 202.469 94.2422 202.469C92.7734 202.469 91.4844 202.188 90.375 201.625C89.2812 201.062 88.4297 200.234 87.8203 199.141C87.2109 198.047 86.9062 196.695 86.9062 195.086C86.9062 193.867 87.1172 192.742 87.5391 191.711C87.9609 190.68 88.5859 189.789 89.4141 189.039C90.2422 188.273 91.2812 187.68 92.5312 187.258C93.7969 186.836 95.2578 186.625 96.9141 186.625H100.43ZM114.516 180.625V202H110.367V176.641H114.375L114.516 180.625ZM120.82 176.5L120.844 180.531C120.5 180.453 120.188 180.406 119.906 180.391C119.641 180.359 119.328 180.344 118.969 180.344C118.188 180.344 117.5 180.5 116.906 180.812C116.328 181.125 115.828 181.562 115.406 182.125C114.984 182.688 114.648 183.359 114.398 184.141C114.148 184.906 113.977 185.75 113.883 186.672L112.805 187.375C112.805 185.844 112.922 184.406 113.156 183.062C113.406 181.719 113.789 180.531 114.305 179.5C114.82 178.453 115.477 177.641 116.273 177.062C117.086 176.469 118.055 176.172 119.18 176.172C119.43 176.172 119.734 176.211 120.094 176.289C120.469 176.352 120.711 176.422 120.82 176.5ZM129.141 180.625V202H124.992V176.641H129L129.141 180.625ZM135.445 176.5L135.469 180.531C135.125 180.453 134.812 180.406 134.531 180.391C134.266 180.359 133.953 180.344 133.594 180.344C132.812 180.344 132.125 180.5 131.531 180.812C130.953 181.125 130.453 181.562 130.031 182.125C129.609 182.688 129.273 183.359 129.023 184.141C128.773 184.906 128.602 185.75 128.508 186.672L127.43 187.375C127.43 185.844 127.547 184.406 127.781 183.062C128.031 181.719 128.414 180.531 128.93 179.5C129.445 178.453 130.102 177.641 130.898 177.062C131.711 176.469 132.68 176.172 133.805 176.172C134.055 176.172 134.359 176.211 134.719 176.289C135.094 176.352 135.336 176.422 135.445 176.5ZM144.07 176.641V202H139.945V176.641H144.07ZM139.711 169.914C139.711 169.211 139.906 168.617 140.297 168.133C140.688 167.648 141.273 167.406 142.055 167.406C142.836 167.406 143.422 167.648 143.812 168.133C144.219 168.617 144.422 169.211 144.422 169.914C144.422 170.586 144.219 171.164 143.812 171.648C143.422 172.117 142.836 172.352 142.055 172.352C141.273 172.352 140.688 172.117 140.297 171.648C139.906 171.164 139.711 170.586 139.711 169.914ZM162.938 195.508C162.938 194.867 162.781 194.305 162.469 193.82C162.156 193.336 161.641 192.867 160.922 192.414C160.219 191.961 159.266 191.477 158.062 190.961C156.891 190.477 155.836 190 154.898 189.531C153.977 189.047 153.195 188.523 152.555 187.961C151.914 187.398 151.422 186.75 151.078 186.016C150.75 185.266 150.586 184.383 150.586 183.367C150.586 182.352 150.773 181.414 151.148 180.555C151.539 179.68 152.086 178.914 152.789 178.258C153.492 177.602 154.336 177.094 155.32 176.734C156.305 176.359 157.406 176.172 158.625 176.172C160.359 176.172 161.836 176.508 163.055 177.18C164.273 177.852 165.203 178.773 165.844 179.945C166.5 181.102 166.828 182.406 166.828 183.859H162.703C162.703 183.156 162.547 182.492 162.234 181.867C161.922 181.242 161.461 180.734 160.852 180.344C160.242 179.938 159.5 179.734 158.625 179.734C157.703 179.734 156.953 179.898 156.375 180.227C155.797 180.555 155.375 180.984 155.109 181.516C154.859 182.031 154.734 182.602 154.734 183.227C154.734 183.695 154.797 184.102 154.922 184.445C155.062 184.773 155.297 185.086 155.625 185.383C155.953 185.664 156.398 185.961 156.961 186.273C157.539 186.57 158.273 186.914 159.164 187.305C160.883 187.977 162.328 188.656 163.5 189.344C164.672 190.031 165.562 190.836 166.172 191.758C166.781 192.68 167.086 193.82 167.086 195.18C167.086 196.289 166.883 197.297 166.477 198.203C166.086 199.094 165.523 199.859 164.789 200.5C164.055 201.141 163.172 201.633 162.141 201.977C161.125 202.305 159.984 202.469 158.719 202.469C156.812 202.469 155.195 202.094 153.867 201.344C152.555 200.578 151.555 199.586 150.867 198.367C150.195 197.133 149.859 195.812 149.859 194.406H154.008C154.055 195.594 154.32 196.516 154.805 197.172C155.305 197.828 155.906 198.281 156.609 198.531C157.312 198.781 158.016 198.906 158.719 198.906C159.641 198.906 160.414 198.773 161.039 198.508C161.664 198.227 162.133 197.828 162.445 197.312C162.773 196.797 162.938 196.195 162.938 195.508Z" fill="#0FBAB7"/>
</svg>
