<svg width="357" height="200" viewBox="0 0 357 200" fill="none" xmlns="http://www.w3.org/2000/svg">
<path d="M94.7401 89.8488C92.8485 89.8488 91.3157 91.2989 91.3157 93.0886C91.3157 94.8782 92.8485 96.3283 94.7401 96.3283C96.8801 96.3283 98.621 97.9754 98.621 100C98.621 101.79 100.154 103.24 102.045 103.24C103.937 103.24 105.47 101.79 105.47 100C105.47 94.4026 100.656 89.8488 94.7401 89.8488Z" fill="#0FBAB7"/>
<path d="M165.982 100C168.984 97.0354 171.75 94.0583 174.253 91.0873C188.125 74.6181 192.395 60.0263 186.277 50C180.159 39.9741 164.667 36.1758 142.655 39.308C138.677 39.8739 134.56 40.6536 130.338 41.6337C127.835 33.4708 124.797 26.1685 121.289 20.0488C122.815 18.295 123.732 16.0505 123.732 13.6069C123.732 8.0095 118.919 3.45572 113.003 3.45572C111.244 3.45572 109.585 3.86048 108.119 4.57279C103.839 1.53909 99.347 0 94.7401 0C82.5029 0 71.2811 10.7944 63.1421 30.3952C61.6737 33.9309 60.3314 37.6864 59.1187 41.6281C54.9045 40.651 50.7957 39.873 46.8249 39.308C24.8137 36.1771 9.32151 39.9736 3.20244 50C-2.91571 60.0263 1.35421 74.6181 15.2269 91.0873C17.7344 94.0639 20.5068 97.0471 23.5152 100.017C19.8096 103.67 16.477 107.328 13.5741 110.948C12.6673 110.712 11.7144 110.583 10.7296 110.583C4.81325 110.583 0 115.137 0 120.734C0 123.52 1.19258 126.046 3.11935 127.882C-0.406355 136.5 -0.385808 144.118 3.2029 150C7.92301 157.734 18.2179 161.762 32.7837 161.762C37.0998 161.762 41.7938 161.408 46.8253 160.692C50.7957 160.127 54.9045 159.349 59.1192 158.371C60.3318 162.313 61.6742 166.068 63.1425 169.604C71.2811 189.205 82.5029 200 94.7401 200C106.977 200 118.199 189.205 126.338 169.604C127.809 166.063 129.153 162.301 130.367 158.352C135.951 159.651 141.328 160.597 146.412 161.155C147.558 165.594 151.795 168.899 156.835 168.899C161.965 168.899 166.264 165.473 167.316 160.913C176.321 159.358 182.856 155.606 186.277 150C192.395 139.974 188.125 125.382 174.253 108.913C171.75 105.942 168.984 102.964 165.982 100ZM143.673 45.7158C162.432 43.0454 175.798 45.7888 180.345 53.2397C184.892 60.6903 180.719 73.0134 168.897 87.0492C166.549 89.8363 163.955 92.632 161.141 95.4181C154.117 89.032 146.042 82.7568 137.18 76.7944C136.14 66.5521 134.423 56.8004 132.105 47.8924C136.073 46.9767 139.939 46.2471 143.673 45.7158ZM113.117 130.114C107.012 133.45 100.865 136.497 94.7547 139.235C88.6215 136.493 82.4595 133.444 76.3628 130.114C70.2524 126.777 64.3849 123.261 58.8197 119.62C58.2699 113.241 57.9855 106.675 57.9855 100C57.9855 93.3309 58.2695 86.7715 58.8183 80.3974C64.3981 76.7382 70.2716 73.2125 76.3628 69.8851C82.4732 66.5473 88.6251 63.4981 94.7401 60.7585C100.855 63.4976 107.007 66.5473 113.117 69.8851C119.224 73.2207 125.088 76.7339 130.65 80.3719C131.204 86.7564 131.495 93.3279 131.495 100C131.495 106.675 131.21 113.241 130.66 119.62C125.095 123.261 119.228 126.777 113.117 130.114ZM129.772 128.004C128.772 135.893 127.347 143.42 125.526 150.424C118.22 148.414 110.608 145.816 102.881 142.694C107.44 140.53 112.004 138.204 116.541 135.726C121.086 133.243 125.504 130.663 129.772 128.004ZM86.6353 142.699C78.9027 145.829 71.2893 148.429 63.958 150.441C62.1349 143.433 60.7085 135.9 59.7082 128.004C63.9753 130.662 68.3932 133.243 72.9384 135.726C77.4764 138.204 82.0545 140.53 86.6353 142.699ZM51.5897 114.7C44.8707 109.938 38.6955 105.01 33.1969 100.018C38.6891 95.0371 44.8735 90.0994 51.5879 85.3313C51.2893 90.1464 51.1368 95.0458 51.1368 100C51.1368 104.965 51.2898 109.875 51.5897 114.7ZM59.7059 72.0121C60.7067 64.1106 62.1335 56.5719 63.958 49.559C71.2847 51.5693 78.8936 54.1672 86.6212 57.295C82.0545 59.4618 77.4828 61.7914 72.938 64.2739C68.4028 66.7512 63.984 69.34 59.7059 72.0121ZM102.859 57.295C110.582 54.1689 118.187 51.5719 125.51 49.5624C127.318 56.5391 128.747 64.0739 129.753 71.9844C125.492 69.33 121.08 66.7533 116.542 64.2743C111.996 61.7914 107.425 59.4618 102.859 57.295ZM137.879 85.2916C144.61 90.0613 150.796 94.9991 156.303 100C150.799 104.998 144.617 109.933 137.89 114.701C138.19 109.876 138.343 104.965 138.343 100C138.343 95.0372 138.184 90.1231 137.879 85.2916ZM116.884 13.6069C116.884 15.6315 115.143 17.2786 113.003 17.2786C110.863 17.2786 109.122 15.6315 109.122 13.6069C109.122 11.5823 110.863 9.93521 113.003 9.93521C115.143 9.93521 116.884 11.5823 116.884 13.6069ZM69.5159 32.765C76.4527 16.06 85.6464 6.47948 94.7401 6.47948C97.5887 6.47948 100.461 7.41814 103.303 9.273C102.644 10.5883 102.274 12.057 102.274 13.6069C102.274 19.2043 107.087 23.7581 113.003 23.7581C113.85 23.7581 114.673 23.6618 115.465 23.4855C118.656 29.1184 121.436 35.8138 123.743 43.305C114.394 45.8648 104.621 49.34 94.7405 53.6151C84.8583 49.3391 75.0848 45.8639 65.7341 43.3041C66.8764 39.6048 68.1389 36.0821 69.5159 32.765ZM9.1334 53.2397C13.68 45.7888 27.0473 43.0467 45.8063 45.7158C49.5315 46.2458 53.3873 46.9732 57.3449 47.8855C55.0113 56.8337 53.3046 66.587 52.2778 76.8302C43.4457 82.7888 35.3707 89.0743 28.3599 95.4397C25.5374 92.6462 22.9362 89.8436 20.5826 87.0492C8.75992 73.0134 4.58679 60.6903 9.1334 53.2397ZM10.7296 117.063C12.8696 117.063 14.6105 118.71 14.6105 120.734C14.6105 122.759 12.8696 124.406 10.7296 124.406C8.58962 124.406 6.84868 122.759 6.84868 120.734C6.84868 118.71 8.58962 117.063 10.7296 117.063ZM45.8067 154.284C27.0491 156.952 13.6809 154.211 9.13386 146.76C6.15514 141.878 7.36507 135.694 9.27814 130.79C9.75343 130.851 10.2374 130.886 10.7296 130.886C16.6459 130.886 21.4592 126.332 21.4592 120.734C21.4592 118.424 20.6374 116.292 19.258 114.584C21.9267 111.279 24.9749 107.938 28.3558 104.597C35.3707 110.973 43.4325 117.238 52.2805 123.192C53.3074 133.427 55.0132 143.172 57.3454 152.114C53.3877 153.027 49.5315 153.754 45.8067 154.284ZM119.963 167.235C113.027 183.94 103.833 193.521 94.7401 193.521C85.6464 193.521 76.4527 183.94 69.5164 167.235C68.1389 163.918 66.8769 160.395 65.7336 156.696C75.0903 154.134 84.8711 150.656 94.7597 146.376C104.636 150.639 114.424 154.113 123.754 156.673C122.608 160.381 121.344 163.911 119.963 167.235ZM156.835 162.419C154.695 162.419 152.954 160.772 152.954 158.747C152.954 156.723 154.695 155.076 156.835 155.076C158.975 155.076 160.716 156.723 160.716 158.747C160.716 160.772 158.974 162.419 156.835 162.419ZM180.346 146.76C177.981 150.636 173.341 153.216 166.554 154.454C164.841 150.997 161.129 148.596 156.835 148.596C152.44 148.596 148.655 151.11 146.999 154.698C142.29 154.173 137.311 153.297 132.138 152.1C134.469 143.162 136.173 133.422 137.2 123.193C146.054 117.234 154.123 110.963 161.141 104.582C163.956 107.368 166.549 110.164 168.897 112.951C180.719 126.987 184.892 139.31 180.346 146.76Z" fill="#0FBAB7"/>
<path d="M209.766 102.148H214.078C213.969 104.492 213.492 106.516 212.648 108.219C211.82 109.906 210.609 111.203 209.016 112.109C207.438 113.016 205.461 113.469 203.086 113.469C201.383 113.469 199.844 113.133 198.469 112.461C197.094 111.789 195.914 110.828 194.93 109.578C193.961 108.312 193.219 106.797 192.703 105.031C192.188 103.266 191.93 101.281 191.93 99.0781V92.7734C191.93 90.5859 192.188 88.6094 192.703 86.8438C193.234 85.0781 193.992 83.5703 194.977 82.3203C195.977 81.0547 197.188 80.0859 198.609 79.4141C200.047 78.7422 201.672 78.4062 203.484 78.4062C205.703 78.4062 207.578 78.8516 209.109 79.7422C210.656 80.6172 211.844 81.9062 212.672 83.6094C213.516 85.2969 213.984 87.3672 214.078 89.8203H209.766C209.656 88.0234 209.375 86.5625 208.922 85.4375C208.469 84.2969 207.797 83.4609 206.906 82.9297C206.031 82.3828 204.891 82.1094 203.484 82.1094C202.234 82.1094 201.148 82.3594 200.227 82.8594C199.32 83.3594 198.57 84.0781 197.977 85.0156C197.398 85.9375 196.961 87.0547 196.664 88.3672C196.383 89.6641 196.242 91.1172 196.242 92.7266V99.0781C196.242 100.578 196.359 101.977 196.594 103.273C196.844 104.57 197.234 105.711 197.766 106.695C198.312 107.664 199.023 108.422 199.898 108.969C200.773 109.516 201.836 109.789 203.086 109.789C204.664 109.789 205.914 109.531 206.836 109.016C207.758 108.5 208.438 107.68 208.875 106.555C209.328 105.43 209.625 103.961 209.766 102.148ZM237 102.148H241.312C241.203 104.492 240.727 106.516 239.883 108.219C239.055 109.906 237.844 111.203 236.25 112.109C234.672 113.016 232.695 113.469 230.32 113.469C228.617 113.469 227.078 113.133 225.703 112.461C224.328 111.789 223.148 110.828 222.164 109.578C221.195 108.312 220.453 106.797 219.938 105.031C219.422 103.266 219.164 101.281 219.164 99.0781V92.7734C219.164 90.5859 219.422 88.6094 219.938 86.8438C220.469 85.0781 221.227 83.5703 222.211 82.3203C223.211 81.0547 224.422 80.0859 225.844 79.4141C227.281 78.7422 228.906 78.4062 230.719 78.4062C232.938 78.4062 234.812 78.8516 236.344 79.7422C237.891 80.6172 239.078 81.9062 239.906 83.6094C240.75 85.2969 241.219 87.3672 241.312 89.8203H237C236.891 88.0234 236.609 86.5625 236.156 85.4375C235.703 84.2969 235.031 83.4609 234.141 82.9297C233.266 82.3828 232.125 82.1094 230.719 82.1094C229.469 82.1094 228.383 82.3594 227.461 82.8594C226.555 83.3594 225.805 84.0781 225.211 85.0156C224.633 85.9375 224.195 87.0547 223.898 88.3672C223.617 89.6641 223.477 91.1172 223.477 92.7266V99.0781C223.477 100.578 223.594 101.977 223.828 103.273C224.078 104.57 224.469 105.711 225 106.695C225.547 107.664 226.258 108.422 227.133 108.969C228.008 109.516 229.07 109.789 230.32 109.789C231.898 109.789 233.148 109.531 234.07 109.016C234.992 108.5 235.672 107.68 236.109 106.555C236.562 105.43 236.859 103.961 237 102.148ZM265.664 93.5469V97.2266H250.875V93.5469H265.664ZM251.461 78.875V113H247.148V78.875H251.461ZM269.484 78.875V113H265.172V78.875H269.484ZM288.773 108.664V94.9062C288.773 93.9062 288.617 93.1016 288.305 92.4922C288.008 91.8828 287.555 91.4375 286.945 91.1562C286.352 90.875 285.602 90.7344 284.695 90.7344C283.82 90.7344 283.062 90.9141 282.422 91.2734C281.797 91.6328 281.312 92.1094 280.969 92.7031C280.641 93.2969 280.477 93.9531 280.477 94.6719H276.328C276.328 93.7656 276.523 92.8672 276.914 91.9766C277.32 91.0859 277.898 90.2812 278.648 89.5625C279.398 88.8281 280.297 88.25 281.344 87.8281C282.406 87.3906 283.594 87.1719 284.906 87.1719C286.469 87.1719 287.852 87.4297 289.055 87.9453C290.258 88.4453 291.203 89.2656 291.891 90.4062C292.578 91.5469 292.922 93.0625 292.922 94.9531V107.469C292.922 108.312 292.984 109.211 293.109 110.164C293.25 111.117 293.445 111.938 293.695 112.625V113H289.406C289.203 112.5 289.047 111.836 288.938 111.008C288.828 110.164 288.773 109.383 288.773 108.664ZM289.43 97.625L289.477 100.672H286.594C285.609 100.672 284.711 100.781 283.898 101C283.102 101.219 282.414 101.539 281.836 101.961C281.258 102.367 280.812 102.875 280.5 103.484C280.203 104.094 280.055 104.789 280.055 105.57C280.055 106.586 280.195 107.398 280.477 108.008C280.758 108.602 281.18 109.031 281.742 109.297C282.305 109.562 283.016 109.695 283.875 109.695C284.922 109.695 285.844 109.453 286.641 108.969C287.438 108.484 288.055 107.898 288.492 107.211C288.945 106.523 289.156 105.883 289.125 105.289L290.039 107.234C289.977 107.844 289.773 108.508 289.43 109.227C289.102 109.93 288.641 110.609 288.047 111.266C287.453 111.906 286.75 112.438 285.938 112.859C285.141 113.266 284.242 113.469 283.242 113.469C281.773 113.469 280.484 113.188 279.375 112.625C278.281 112.062 277.43 111.234 276.82 110.141C276.211 109.047 275.906 107.695 275.906 106.086C275.906 104.867 276.117 103.742 276.539 102.711C276.961 101.68 277.586 100.789 278.414 100.039C279.242 99.2734 280.281 98.6797 281.531 98.2578C282.797 97.8359 284.258 97.625 285.914 97.625H289.43ZM303.516 91.625V113H299.367V87.6406H303.375L303.516 91.625ZM309.82 87.5L309.844 91.5312C309.5 91.4531 309.188 91.4062 308.906 91.3906C308.641 91.3594 308.328 91.3438 307.969 91.3438C307.188 91.3438 306.5 91.5 305.906 91.8125C305.328 92.125 304.828 92.5625 304.406 93.125C303.984 93.6875 303.648 94.3594 303.398 95.1406C303.148 95.9062 302.977 96.75 302.883 97.6719L301.805 98.375C301.805 96.8438 301.922 95.4062 302.156 94.0625C302.406 92.7188 302.789 91.5312 303.305 90.5C303.82 89.4531 304.477 88.6406 305.273 88.0625C306.086 87.4688 307.055 87.1719 308.18 87.1719C308.43 87.1719 308.734 87.2109 309.094 87.2891C309.469 87.3516 309.711 87.4219 309.82 87.5ZM318.141 91.625V113H313.992V87.6406H318L318.141 91.625ZM324.445 87.5L324.469 91.5312C324.125 91.4531 323.812 91.4062 323.531 91.3906C323.266 91.3594 322.953 91.3438 322.594 91.3438C321.812 91.3438 321.125 91.5 320.531 91.8125C319.953 92.125 319.453 92.5625 319.031 93.125C318.609 93.6875 318.273 94.3594 318.023 95.1406C317.773 95.9062 317.602 96.75 317.508 97.6719L316.43 98.375C316.43 96.8438 316.547 95.4062 316.781 94.0625C317.031 92.7188 317.414 91.5312 317.93 90.5C318.445 89.4531 319.102 88.6406 319.898 88.0625C320.711 87.4688 321.68 87.1719 322.805 87.1719C323.055 87.1719 323.359 87.2109 323.719 87.2891C324.094 87.3516 324.336 87.4219 324.445 87.5ZM333.07 87.6406V113H328.945V87.6406H333.07ZM328.711 80.9141C328.711 80.2109 328.906 79.6172 329.297 79.1328C329.688 78.6484 330.273 78.4062 331.055 78.4062C331.836 78.4062 332.422 78.6484 332.812 79.1328C333.219 79.6172 333.422 80.2109 333.422 80.9141C333.422 81.5859 333.219 82.1641 332.812 82.6484C332.422 83.1172 331.836 83.3516 331.055 83.3516C330.273 83.3516 329.688 83.1172 329.297 82.6484C328.906 82.1641 328.711 81.5859 328.711 80.9141ZM351.938 106.508C351.938 105.867 351.781 105.305 351.469 104.82C351.156 104.336 350.641 103.867 349.922 103.414C349.219 102.961 348.266 102.477 347.062 101.961C345.891 101.477 344.836 101 343.898 100.531C342.977 100.047 342.195 99.5234 341.555 98.9609C340.914 98.3984 340.422 97.75 340.078 97.0156C339.75 96.2656 339.586 95.3828 339.586 94.3672C339.586 93.3516 339.773 92.4141 340.148 91.5547C340.539 90.6797 341.086 89.9141 341.789 89.2578C342.492 88.6016 343.336 88.0938 344.32 87.7344C345.305 87.3594 346.406 87.1719 347.625 87.1719C349.359 87.1719 350.836 87.5078 352.055 88.1797C353.273 88.8516 354.203 89.7734 354.844 90.9453C355.5 92.1016 355.828 93.4062 355.828 94.8594H351.703C351.703 94.1562 351.547 93.4922 351.234 92.8672C350.922 92.2422 350.461 91.7344 349.852 91.3438C349.242 90.9375 348.5 90.7344 347.625 90.7344C346.703 90.7344 345.953 90.8984 345.375 91.2266C344.797 91.5547 344.375 91.9844 344.109 92.5156C343.859 93.0312 343.734 93.6016 343.734 94.2266C343.734 94.6953 343.797 95.1016 343.922 95.4453C344.062 95.7734 344.297 96.0859 344.625 96.3828C344.953 96.6641 345.398 96.9609 345.961 97.2734C346.539 97.5703 347.273 97.9141 348.164 98.3047C349.883 98.9766 351.328 99.6562 352.5 100.344C353.672 101.031 354.562 101.836 355.172 102.758C355.781 103.68 356.086 104.82 356.086 106.18C356.086 107.289 355.883 108.297 355.477 109.203C355.086 110.094 354.523 110.859 353.789 111.5C353.055 112.141 352.172 112.633 351.141 112.977C350.125 113.305 348.984 113.469 347.719 113.469C345.812 113.469 344.195 113.094 342.867 112.344C341.555 111.578 340.555 110.586 339.867 109.367C339.195 108.133 338.859 106.812 338.859 105.406H343.008C343.055 106.594 343.32 107.516 343.805 108.172C344.305 108.828 344.906 109.281 345.609 109.531C346.312 109.781 347.016 109.906 347.719 109.906C348.641 109.906 349.414 109.773 350.039 109.508C350.664 109.227 351.133 108.828 351.445 108.312C351.773 107.797 351.938 107.195 351.938 106.508Z" fill="#0FBAB7"/>
</svg>
